<mxfile host="app.diagrams.net" agent="Mozilla/5.0 (Windows NT 10.0; Win64; x64) AppleWebKit/537.36 (KHTML, like Gecko) Chrome/129.0.0.0 Safari/537.36" version="24.7.14">
  <diagram name="PÃ¡gina-1" id="7sAjc7AkS4kR7T0Lhs7j">
    <mxGraphModel dx="1050" dy="522" grid="0" gridSize="10" guides="1" tooltips="1" connect="1" arrows="1" fold="1" page="0" pageScale="1" pageWidth="827" pageHeight="1169" math="0" shadow="0">
      <root>
        <mxCell id="0" />
        <mxCell id="1" parent="0" />
        <mxCell id="nW5X6AlRrEionHhW_kOq-19" value="" style="rounded=0;whiteSpace=wrap;html=1;fillColor=#f5f5f5;fontColor=#333333;strokeColor=#666666;shadow=1;" vertex="1" parent="1">
          <mxGeometry x="267.5" y="110" width="119" height="158" as="geometry" />
        </mxCell>
        <mxCell id="nW5X6AlRrEionHhW_kOq-10" value="" style="edgeStyle=orthogonalEdgeStyle;rounded=0;orthogonalLoop=1;jettySize=auto;html=1;exitX=0;exitY=0.75;exitDx=0;exitDy=0;" edge="1" parent="1" source="nW5X6AlRrEionHhW_kOq-1" target="nW5X6AlRrEionHhW_kOq-4">
          <mxGeometry relative="1" as="geometry" />
        </mxCell>
        <mxCell id="nW5X6AlRrEionHhW_kOq-13" value="" style="edgeStyle=orthogonalEdgeStyle;rounded=0;orthogonalLoop=1;jettySize=auto;html=1;entryX=0.5;entryY=1;entryDx=0;entryDy=0;" edge="1" parent="1" source="nW5X6AlRrEionHhW_kOq-1" target="nW5X6AlRrEionHhW_kOq-12">
          <mxGeometry relative="1" as="geometry" />
        </mxCell>
        <mxCell id="nW5X6AlRrEionHhW_kOq-1" value="&lt;span style=&quot;color: rgb(51, 51, 51); font-family: &amp;quot;trebuchet ms&amp;quot;, verdana, arial, sans-serif; font-size: 16px; text-wrap: nowrap; background-color: rgb(255, 255, 255);&quot;&gt;pass-turn&lt;/span&gt;" style="rounded=0;whiteSpace=wrap;html=1;" vertex="1" parent="1">
          <mxGeometry x="280" y="120" width="95" height="38" as="geometry" />
        </mxCell>
        <mxCell id="nW5X6AlRrEionHhW_kOq-15" value="" style="edgeStyle=orthogonalEdgeStyle;rounded=0;orthogonalLoop=1;jettySize=auto;html=1;" edge="1" parent="1" source="nW5X6AlRrEionHhW_kOq-2" target="nW5X6AlRrEionHhW_kOq-14">
          <mxGeometry relative="1" as="geometry" />
        </mxCell>
        <mxCell id="nW5X6AlRrEionHhW_kOq-2" value="&lt;span style=&quot;color: rgb(51, 51, 51); font-family: &amp;quot;trebuchet ms&amp;quot;, verdana, arial, sans-serif; font-size: 16px; text-wrap: nowrap; background-color: rgb(255, 255, 255);&quot;&gt;draw-card&lt;/span&gt;" style="rounded=0;whiteSpace=wrap;html=1;" vertex="1" parent="1">
          <mxGeometry x="280" y="170" width="95" height="38" as="geometry" />
        </mxCell>
        <mxCell id="nW5X6AlRrEionHhW_kOq-11" value="" style="edgeStyle=orthogonalEdgeStyle;rounded=0;orthogonalLoop=1;jettySize=auto;html=1;exitX=0;exitY=0.25;exitDx=0;exitDy=0;" edge="1" parent="1" source="nW5X6AlRrEionHhW_kOq-3" target="nW5X6AlRrEionHhW_kOq-4">
          <mxGeometry relative="1" as="geometry" />
        </mxCell>
        <mxCell id="nW5X6AlRrEionHhW_kOq-16" value="" style="edgeStyle=orthogonalEdgeStyle;rounded=0;orthogonalLoop=1;jettySize=auto;html=1;exitX=1;exitY=0.25;exitDx=0;exitDy=0;" edge="1" parent="1" source="nW5X6AlRrEionHhW_kOq-3" target="nW5X6AlRrEionHhW_kOq-14">
          <mxGeometry relative="1" as="geometry" />
        </mxCell>
        <mxCell id="nW5X6AlRrEionHhW_kOq-18" value="" style="edgeStyle=orthogonalEdgeStyle;rounded=0;orthogonalLoop=1;jettySize=auto;html=1;entryX=0.5;entryY=0;entryDx=0;entryDy=0;" edge="1" parent="1" source="nW5X6AlRrEionHhW_kOq-3" target="nW5X6AlRrEionHhW_kOq-17">
          <mxGeometry relative="1" as="geometry" />
        </mxCell>
        <mxCell id="nW5X6AlRrEionHhW_kOq-3" value="&lt;span style=&quot;color: rgb(51, 51, 51); font-family: &amp;quot;trebuchet ms&amp;quot;, verdana, arial, sans-serif; font-size: 16px; text-wrap: nowrap; background-color: rgb(255, 255, 255);&quot;&gt;dicard-card&lt;/span&gt;" style="rounded=0;whiteSpace=wrap;html=1;" vertex="1" parent="1">
          <mxGeometry x="280" y="220" width="95" height="38" as="geometry" />
        </mxCell>
        <mxCell id="nW5X6AlRrEionHhW_kOq-5" value="" style="edgeStyle=orthogonalEdgeStyle;rounded=0;orthogonalLoop=1;jettySize=auto;html=1;exitX=0;exitY=0.5;exitDx=0;exitDy=0;" edge="1" parent="1" source="nW5X6AlRrEionHhW_kOq-2" target="nW5X6AlRrEionHhW_kOq-4">
          <mxGeometry relative="1" as="geometry" />
        </mxCell>
        <mxCell id="nW5X6AlRrEionHhW_kOq-4" value="&lt;span style=&quot;color: rgb(51, 51, 51); font-family: &amp;quot;trebuchet ms&amp;quot;, verdana, arial, sans-serif; font-size: 16px; text-wrap: nowrap; background-color: rgb(255, 255, 255);&quot;&gt;player&lt;/span&gt;" style="rounded=1;whiteSpace=wrap;html=1;" vertex="1" parent="1">
          <mxGeometry x="111" y="170" width="95" height="38" as="geometry" />
        </mxCell>
        <mxCell id="nW5X6AlRrEionHhW_kOq-12" value="&lt;span style=&quot;color: rgb(51, 51, 51); font-family: &amp;quot;trebuchet ms&amp;quot;, verdana, arial, sans-serif; font-size: 16px; text-wrap: nowrap; background-color: rgb(255, 255, 255);&quot;&gt;pile&lt;/span&gt;" style="rounded=1;whiteSpace=wrap;html=1;" vertex="1" parent="1">
          <mxGeometry x="111" y="78" width="95" height="38" as="geometry" />
        </mxCell>
        <mxCell id="nW5X6AlRrEionHhW_kOq-14" value="&lt;span style=&quot;color: rgb(51, 51, 51); font-family: &amp;quot;trebuchet ms&amp;quot;, verdana, arial, sans-serif; font-size: 16px; text-wrap: nowrap; background-color: rgb(255, 255, 255);&quot;&gt;hands&lt;/span&gt;" style="rounded=1;whiteSpace=wrap;html=1;" vertex="1" parent="1">
          <mxGeometry x="450" y="170" width="95" height="38" as="geometry" />
        </mxCell>
        <mxCell id="nW5X6AlRrEionHhW_kOq-17" value="&lt;font face=&quot;trebuchet ms, verdana, arial, sans-serif&quot; color=&quot;#333333&quot;&gt;&lt;span style=&quot;font-size: 16px; text-wrap: nowrap; background-color: rgb(255, 255, 255);&quot;&gt;last&lt;/span&gt;&lt;/font&gt;" style="rounded=1;whiteSpace=wrap;html=1;" vertex="1" parent="1">
          <mxGeometry x="450" y="260" width="95" height="38" as="geometry" />
        </mxCell>
        <mxCell id="nW5X6AlRrEionHhW_kOq-22" value="" style="edgeStyle=orthogonalEdgeStyle;rounded=0;orthogonalLoop=1;jettySize=auto;html=1;entryX=0.5;entryY=0;entryDx=0;entryDy=0;" edge="1" parent="1" source="nW5X6AlRrEionHhW_kOq-21" target="nW5X6AlRrEionHhW_kOq-19">
          <mxGeometry relative="1" as="geometry" />
        </mxCell>
        <mxCell id="nW5X6AlRrEionHhW_kOq-21" value="begin" style="ellipse;whiteSpace=wrap;html=1;fontStyle=2;fillColor=#000000;fontColor=#FFFFFF;shadow=1;" vertex="1" parent="1">
          <mxGeometry x="304" y="30" width="45" height="40" as="geometry" />
        </mxCell>
        <mxCell id="nW5X6AlRrEionHhW_kOq-23" value="First Level" style="text;html=1;align=center;verticalAlign=middle;whiteSpace=wrap;rounded=0;fontStyle=2;fontSize=10;" vertex="1" parent="1">
          <mxGeometry x="260.5" y="89" width="60" height="30" as="geometry" />
        </mxCell>
        <mxCell id="nW5X6AlRrEionHhW_kOq-24" value="Second Level" style="text;html=1;align=center;verticalAlign=middle;whiteSpace=wrap;rounded=0;fontStyle=2;fontSize=10;" vertex="1" parent="1">
          <mxGeometry x="105" y="57" width="71" height="30" as="geometry" />
        </mxCell>
        <mxCell id="nW5X6AlRrEionHhW_kOq-25" value="Second Level" style="text;html=1;align=center;verticalAlign=middle;whiteSpace=wrap;rounded=0;fontStyle=2;fontSize=10;" vertex="1" parent="1">
          <mxGeometry x="444" y="149" width="71" height="30" as="geometry" />
        </mxCell>
      </root>
    </mxGraphModel>
  </diagram>
</mxfile>
